<?xml version="1.0" encoding="utf-8"?>
<!DOCTYPE svg PUBLIC "-//W3C//DTD SVG 20010904//EN" "http://www.w3.org/TR/2001/REC-SVG-20010904/DTD/svg10.dtd">
<svg xmlns="http://www.w3.org/2000/svg" xml:space="preserve" xmlns:xlink="http://www.w3.org/1999/xlink" width="400" height="400" viewBox="0 0 400 400">
<defs>
<mask id="qrmask"><g fill="#ffffff">
<g transform="translate(208,32) scale(2.6666666666667)"><rect width="6" height="6"/></g>
<g transform="translate(176,48) scale(2.6666666666667)"><rect width="6" height="6"/></g>
<g transform="translate(208,48) scale(2.6666666666667)"><rect width="6" height="6"/></g>
<g transform="translate(224,48) scale(2.6666666666667)"><rect width="6" height="6"/></g>
<g transform="translate(160,64) scale(2.6666666666667)"><rect width="6" height="6"/></g>
<g transform="translate(176,64) scale(2.6666666666667)"><rect width="6" height="6"/></g>
<g transform="translate(208,64) scale(2.6666666666667)"><rect width="6" height="6"/></g>
<g transform="translate(224,64) scale(2.6666666666667)"><rect width="6" height="6"/></g>
<g transform="translate(160,80) scale(2.6666666666667)"><rect width="6" height="6"/></g>
<g transform="translate(208,80) scale(2.6666666666667)"><rect width="6" height="6"/></g>
<g transform="translate(224,80) scale(2.6666666666667)"><rect width="6" height="6"/></g>
<g transform="translate(160,96) scale(2.6666666666667)"><rect width="6" height="6"/></g>
<g transform="translate(192,96) scale(2.6666666666667)"><rect width="6" height="6"/></g>
<g transform="translate(208,96) scale(2.6666666666667)"><rect width="6" height="6"/></g>
<g transform="translate(224,96) scale(2.6666666666667)"><rect width="6" height="6"/></g>
<g transform="translate(160,112) scale(2.6666666666667)"><rect width="6" height="6"/></g>
<g transform="translate(176,112) scale(2.6666666666667)"><rect width="6" height="6"/></g>
<g transform="translate(192,112) scale(2.6666666666667)"><rect width="6" height="6"/></g>
<g transform="translate(224,112) scale(2.6666666666667)"><rect width="6" height="6"/></g>
<g transform="translate(160,128) scale(2.6666666666667)"><rect width="6" height="6"/></g>
<g transform="translate(192,128) scale(2.6666666666667)"><rect width="6" height="6"/></g>
<g transform="translate(224,128) scale(2.6666666666667)"><rect width="6" height="6"/></g>
<g transform="translate(160,144) scale(2.6666666666667)"><rect width="6" height="6"/></g>
<g transform="translate(176,144) scale(2.6666666666667)"><rect width="6" height="6"/></g>
<g transform="translate(192,144) scale(2.6666666666667)"><rect width="6" height="6"/></g>
<g transform="translate(208,144) scale(2.6666666666667)"><rect width="6" height="6"/></g>
<g transform="translate(224,144) scale(2.6666666666667)"><rect width="6" height="6"/></g>
<g transform="translate(32,160) scale(2.6666666666667)"><rect width="6" height="6"/></g>
<g transform="translate(64,160) scale(2.6666666666667)"><rect width="6" height="6"/></g>
<g transform="translate(80,160) scale(2.6666666666667)"><rect width="6" height="6"/></g>
<g transform="translate(96,160) scale(2.6666666666667)"><rect width="6" height="6"/></g>
<g transform="translate(112,160) scale(2.6666666666667)"><rect width="6" height="6"/></g>
<g transform="translate(128,160) scale(2.6666666666667)"><rect width="6" height="6"/></g>
<g transform="translate(176,160) scale(2.6666666666667)"><rect width="6" height="6"/></g>
<g transform="translate(224,160) scale(2.6666666666667)"><rect width="6" height="6"/></g>
<g transform="translate(256,160) scale(2.6666666666667)"><rect width="6" height="6"/></g>
<g transform="translate(272,160) scale(2.6666666666667)"><rect width="6" height="6"/></g>
<g transform="translate(288,160) scale(2.6666666666667)"><rect width="6" height="6"/></g>
<g transform="translate(304,160) scale(2.6666666666667)"><rect width="6" height="6"/></g>
<g transform="translate(320,160) scale(2.6666666666667)"><rect width="6" height="6"/></g>
<g transform="translate(64,176) scale(2.6666666666667)"><rect width="6" height="6"/></g>
<g transform="translate(80,176) scale(2.6666666666667)"><rect width="6" height="6"/></g>
<g transform="translate(224,176) scale(2.6666666666667)"><rect width="6" height="6"/></g>
<g transform="translate(256,176) scale(2.6666666666667)"><rect width="6" height="6"/></g>
<g transform="translate(272,176) scale(2.6666666666667)"><rect width="6" height="6"/></g>
<g transform="translate(288,176) scale(2.6666666666667)"><rect width="6" height="6"/></g>
<g transform="translate(352,176) scale(2.6666666666667)"><rect width="6" height="6"/></g>
<g transform="translate(32,192) scale(2.6666666666667)"><rect width="6" height="6"/></g>
<g transform="translate(48,192) scale(2.6666666666667)"><rect width="6" height="6"/></g>
<g transform="translate(96,192) scale(2.6666666666667)"><rect width="6" height="6"/></g>
<g transform="translate(128,192) scale(2.6666666666667)"><rect width="6" height="6"/></g>
<g transform="translate(144,192) scale(2.6666666666667)"><rect width="6" height="6"/></g>
<g transform="translate(176,192) scale(2.6666666666667)"><rect width="6" height="6"/></g>
<g transform="translate(192,192) scale(2.6666666666667)"><rect width="6" height="6"/></g>
<g transform="translate(208,192) scale(2.6666666666667)"><rect width="6" height="6"/></g>
<g transform="translate(240,192) scale(2.6666666666667)"><rect width="6" height="6"/></g>
<g transform="translate(304,192) scale(2.6666666666667)"><rect width="6" height="6"/></g>
<g transform="translate(320,192) scale(2.6666666666667)"><rect width="6" height="6"/></g>
<g transform="translate(336,192) scale(2.6666666666667)"><rect width="6" height="6"/></g>
<g transform="translate(48,208) scale(2.6666666666667)"><rect width="6" height="6"/></g>
<g transform="translate(80,208) scale(2.6666666666667)"><rect width="6" height="6"/></g>
<g transform="translate(96,208) scale(2.6666666666667)"><rect width="6" height="6"/></g>
<g transform="translate(160,208) scale(2.6666666666667)"><rect width="6" height="6"/></g>
<g transform="translate(176,208) scale(2.6666666666667)"><rect width="6" height="6"/></g>
<g transform="translate(240,208) scale(2.6666666666667)"><rect width="6" height="6"/></g>
<g transform="translate(272,208) scale(2.6666666666667)"><rect width="6" height="6"/></g>
<g transform="translate(304,208) scale(2.6666666666667)"><rect width="6" height="6"/></g>
<g transform="translate(320,208) scale(2.6666666666667)"><rect width="6" height="6"/></g>
<g transform="translate(352,208) scale(2.6666666666667)"><rect width="6" height="6"/></g>
<g transform="translate(80,224) scale(2.6666666666667)"><rect width="6" height="6"/></g>
<g transform="translate(128,224) scale(2.6666666666667)"><rect width="6" height="6"/></g>
<g transform="translate(160,224) scale(2.6666666666667)"><rect width="6" height="6"/></g>
<g transform="translate(192,224) scale(2.6666666666667)"><rect width="6" height="6"/></g>
<g transform="translate(208,224) scale(2.6666666666667)"><rect width="6" height="6"/></g>
<g transform="translate(256,224) scale(2.6666666666667)"><rect width="6" height="6"/></g>
<g transform="translate(336,224) scale(2.6666666666667)"><rect width="6" height="6"/></g>
<g transform="translate(160,240) scale(2.6666666666667)"><rect width="6" height="6"/></g>
<g transform="translate(176,240) scale(2.6666666666667)"><rect width="6" height="6"/></g>
<g transform="translate(192,240) scale(2.6666666666667)"><rect width="6" height="6"/></g>
<g transform="translate(208,240) scale(2.6666666666667)"><rect width="6" height="6"/></g>
<g transform="translate(224,240) scale(2.6666666666667)"><rect width="6" height="6"/></g>
<g transform="translate(240,240) scale(2.6666666666667)"><rect width="6" height="6"/></g>
<g transform="translate(256,240) scale(2.6666666666667)"><rect width="6" height="6"/></g>
<g transform="translate(272,240) scale(2.6666666666667)"><rect width="6" height="6"/></g>
<g transform="translate(288,240) scale(2.6666666666667)"><rect width="6" height="6"/></g>
<g transform="translate(320,240) scale(2.6666666666667)"><rect width="6" height="6"/></g>
<g transform="translate(336,240) scale(2.6666666666667)"><rect width="6" height="6"/></g>
<g transform="translate(176,256) scale(2.6666666666667)"><rect width="6" height="6"/></g>
<g transform="translate(224,256) scale(2.6666666666667)"><rect width="6" height="6"/></g>
<g transform="translate(256,256) scale(2.6666666666667)"><rect width="6" height="6"/></g>
<g transform="translate(304,256) scale(2.6666666666667)"><rect width="6" height="6"/></g>
<g transform="translate(320,256) scale(2.6666666666667)"><rect width="6" height="6"/></g>
<g transform="translate(336,256) scale(2.6666666666667)"><rect width="6" height="6"/></g>
<g transform="translate(160,272) scale(2.6666666666667)"><rect width="6" height="6"/></g>
<g transform="translate(192,272) scale(2.6666666666667)"><rect width="6" height="6"/></g>
<g transform="translate(208,272) scale(2.6666666666667)"><rect width="6" height="6"/></g>
<g transform="translate(224,272) scale(2.6666666666667)"><rect width="6" height="6"/></g>
<g transform="translate(240,272) scale(2.6666666666667)"><rect width="6" height="6"/></g>
<g transform="translate(272,272) scale(2.6666666666667)"><rect width="6" height="6"/></g>
<g transform="translate(288,272) scale(2.6666666666667)"><rect width="6" height="6"/></g>
<g transform="translate(304,272) scale(2.6666666666667)"><rect width="6" height="6"/></g>
<g transform="translate(320,272) scale(2.6666666666667)"><rect width="6" height="6"/></g>
<g transform="translate(352,272) scale(2.6666666666667)"><rect width="6" height="6"/></g>
<g transform="translate(160,288) scale(2.6666666666667)"><rect width="6" height="6"/></g>
<g transform="translate(176,288) scale(2.6666666666667)"><rect width="6" height="6"/></g>
<g transform="translate(224,288) scale(2.6666666666667)"><rect width="6" height="6"/></g>
<g transform="translate(256,288) scale(2.6666666666667)"><rect width="6" height="6"/></g>
<g transform="translate(288,288) scale(2.6666666666667)"><rect width="6" height="6"/></g>
<g transform="translate(352,288) scale(2.6666666666667)"><rect width="6" height="6"/></g>
<g transform="translate(160,304) scale(2.6666666666667)"><rect width="6" height="6"/></g>
<g transform="translate(192,304) scale(2.6666666666667)"><rect width="6" height="6"/></g>
<g transform="translate(224,304) scale(2.6666666666667)"><rect width="6" height="6"/></g>
<g transform="translate(240,304) scale(2.6666666666667)"><rect width="6" height="6"/></g>
<g transform="translate(272,304) scale(2.6666666666667)"><rect width="6" height="6"/></g>
<g transform="translate(288,304) scale(2.6666666666667)"><rect width="6" height="6"/></g>
<g transform="translate(160,320) scale(2.6666666666667)"><rect width="6" height="6"/></g>
<g transform="translate(208,320) scale(2.6666666666667)"><rect width="6" height="6"/></g>
<g transform="translate(240,320) scale(2.6666666666667)"><rect width="6" height="6"/></g>
<g transform="translate(256,320) scale(2.6666666666667)"><rect width="6" height="6"/></g>
<g transform="translate(304,336) scale(2.6666666666667)"><rect width="6" height="6"/></g>
<g transform="translate(320,336) scale(2.6666666666667)"><rect width="6" height="6"/></g>
<g transform="translate(160,352) scale(2.6666666666667)"><rect width="6" height="6"/></g>
<g transform="translate(176,352) scale(2.6666666666667)"><rect width="6" height="6"/></g>
<g transform="translate(192,352) scale(2.6666666666667)"><rect width="6" height="6"/></g>
<g transform="translate(208,352) scale(2.6666666666667)"><rect width="6" height="6"/></g>
<g transform="translate(272,352) scale(2.6666666666667)"><rect width="6" height="6"/></g>
<g transform="translate(336,352) scale(2.6666666666667)"><rect width="6" height="6"/></g>
<g transform="translate(32,32)"><g transform="scale(8)"><path d="M0,0v14h14V0H0z M12,12H2V2h10V12z"/></g></g>
<g transform="translate(256,32)"><g transform="scale(8)"><path d="M0,0v14h14V0H0z M12,12H2V2h10V12z"/></g></g>
<g transform="translate(32,256)"><g transform="scale(8)"><path d="M0,0v14h14V0H0z M12,12H2V2h10V12z"/></g></g>
<g transform="translate(64,64)"><g transform="scale(8)"><rect width="6" height="6"/></g></g>
<g transform="translate(288,64)"><g transform="scale(8)"><rect width="6" height="6"/></g></g>
<g transform="translate(64,288)"><g transform="scale(8)"><rect width="6" height="6"/></g></g>
</g></mask></defs>
<rect x="0" y="0" width="400" height="400" mask="url(#qrmask)" fill="#f0bb32" />
</svg>